<svg width="264" height="359" viewBox="0 0 264 359" fill="none" xmlns="http://www.w3.org/2000/svg">
<path d="M60.3368 1.13566C55.5744 3.16669 47.5904 11.5009 41.7074 20.3954C24.3386 46.6587 12.7127 84.6179 8.44056 128.95C7.32 140.296 6.68968 228.191 7.60014 235.124C9.56113 249.131 17.4751 260.197 30.2216 266.64C34.914 269.021 44.859 271.683 51.2322 272.313L56.695 272.873L36.5248 301.938C25.3891 317.906 12.8528 336.045 8.5106 342.208C1.92726 351.593 0.666626 353.834 0.666626 356.005V358.667H14.5336H28.3306L35.4042 348.652C39.3262 343.189 42.898 338.006 43.4583 337.166L44.4388 335.555H132.473H220.508L228.772 347.111L237.036 358.667H250.483H264V356.216C264 354.114 259.798 347.601 236.406 313.284L208.812 272.873L213.785 272.383C221.979 271.543 228.212 269.792 235.215 266.43C246.911 260.687 253.775 252.073 257.066 238.906C258.467 233.373 258.537 231.833 258.187 184.769C257.907 135.814 257.767 132.452 254.895 112.142C249.853 75.7935 238.577 42.8768 223.449 20.2553C217.637 11.5709 210.283 3.79701 205.801 1.62591L202.649 0.0851288H132.613C73.1533 0.155164 62.2978 0.295235 60.3368 1.13566ZM194.945 18.2944C199.217 20.4655 207.832 29.5 212.944 37.274C224.85 55.203 232.834 79.3653 236.056 107.239C236.546 111.301 236.896 122.367 236.826 131.962C236.756 149.121 236.756 149.331 234.935 153.323C232.694 158.225 229.753 161.377 225.13 163.828L221.629 165.719H133.034H44.4388L40.7269 164.038C35.8945 161.867 31.1321 156.614 29.7313 151.852C28.4707 147.58 28.2606 117.184 29.3812 106.889C33.3732 71.6614 45.4893 41.7562 62.9282 24.5975C67.5505 19.9752 69.7216 18.2944 72.453 17.4539C75.6046 16.4034 81.4175 16.2633 133.734 16.4034L191.513 16.5435L194.945 18.2944ZM66.0798 204.589C69.7916 206.48 73.7136 210.542 75.3945 214.394C76.0248 215.794 76.515 219.016 76.5851 221.747C76.6551 227.42 74.7642 232.043 70.8422 235.474C62.5079 242.828 52.0026 242.688 44.4388 235.194C36.4548 227.14 36.4548 216.355 44.4388 208.301C50.4618 202.348 58.726 200.947 66.0798 204.589ZM216.026 204.659C219.808 206.55 223.73 210.612 225.34 214.324C225.971 215.724 226.461 218.946 226.461 221.747C226.531 229.521 223.029 235.054 215.465 239.046C211.053 241.357 203.91 241.217 199.147 238.766C192.774 235.404 188.362 228.471 188.362 221.747C188.362 213.763 194.525 205.709 202.439 203.258C206.011 202.137 212.314 202.838 216.026 204.659ZM181.918 278.616L185.56 284.779L131.843 284.989C102.358 285.059 78.0558 284.989 77.9158 284.849C77.7056 284.709 79.3865 281.838 81.6276 278.546L85.6197 272.523H131.913H178.207L181.918 278.616ZM196.766 301.378C199.287 304.95 203.139 310.482 205.38 313.634L209.372 319.447H133.034C91.0824 319.447 56.695 319.307 56.695 319.097C56.695 318.606 70.562 297.736 71.9627 296.125C72.9432 295.005 76.7251 294.934 132.613 294.934H192.214L196.766 301.378Z" fill="#02B59B"/>
<path d="M90.1019 60.8059C89.8218 61.016 89.6117 77.8945 89.6117 98.2749V135.254H100.817H112.023L112.163 114.103L112.373 92.9522L122.458 104.788C127.991 111.371 132.824 116.694 133.244 116.694C133.664 116.694 138.637 111.371 144.239 104.928L154.394 93.1623L154.605 114.173L154.745 135.254H166.301H177.856V98.1348V60.9459L167.561 61.1561L157.266 61.3662L145.78 74.883C136.465 85.8786 134.154 88.2598 133.314 87.5594C132.754 87.1392 127.221 80.836 120.988 73.5523L109.642 60.3156H100.117C94.8644 60.3156 90.312 60.5257 90.1019 60.8059Z" fill="#02B59B"/>
</svg>
